<?xml version="1.0" ?><svg viewBox="0 0 64 64" width="25px" height="25px" xmlns="http://www.w3.org/2000/svg"><title/><g fill= "#ccc" id="Umbrella"><path fill= "#ccc" d="M33,6.0254V3a1,1,0,0,0-2,0V6.0254A30.03,30.03,0,0,0,2,36a1,1,0,0,0,2,0,4.7963,4.7963,0,0,1,9.592-.0753c.0063.0934.0115.1611.0125.171a.94.94,0,0,0,.0469.1608.9788.9788,0,0,0,.0478.1641.9627.9627,0,0,0,.1182.1756.9845.9845,0,0,0,.0967.1257.9953.9953,0,0,0,.1915.1291.9622.9622,0,0,0,.1184.0732A.9891.9891,0,0,0,14.5986,37H14.6c.0318,0,.0636-.0019.0954-.0048a.9375.9375,0,0,0,.1416-.043.98.98,0,0,0,.194-.0589.9539.9539,0,0,0,.1548-.1043A.6606.6606,0,0,0,15.44,36.51a.9625.9625,0,0,0,.0909-.1673.9851.9851,0,0,0,.0391-.1944A.94.94,0,0,0,15.6,36a4.796,4.796,0,0,1,9.5912-.0931c.0055.0783.01.1393.0123.17a.9523.9523,0,0,0,.0479.1746.9989.9989,0,0,0,.0445.1626.9656.9656,0,0,0,.12.1784.5893.5893,0,0,0,.29.258.9561.9561,0,0,0,.1157.0729A.9892.9892,0,0,0,26.1992,37H26.2c.0252,0,.051-.0009.0769-.0028a.9616.9616,0,0,0,.1534-.0436.9974.9974,0,0,0,.1925-.0547.967.967,0,0,0,.1541-.1038.6186.6186,0,0,0,.2555-.2737.96.96,0,0,0,.0967-.17.9955.9955,0,0,0,.0387-.1921A.9486.9486,0,0,0,27.2,36,4.8055,4.8055,0,0,1,29,32.2637V53.5a2.5,2.5,0,0,1-5,0V52a3,3,0,0,0-6,0v1.5a8.5,8.5,0,0,0,17,0V32.263A4.8066,4.8066,0,0,1,36.8,36a.9451.9451,0,0,0,.032.1585.9947.9947,0,0,0,.0388.1926.9574.9574,0,0,0,.0964.17.62.62,0,0,0,.2556.274.9618.9618,0,0,0,.1542.1039.9964.9964,0,0,0,.1924.0547.9628.9628,0,0,0,.1535.0436c.0259.0019.0517.0028.0769.0028h.0012a.9887.9887,0,0,0,.3776-.0764.96.96,0,0,0,.1164-.0733.59.59,0,0,0,.29-.2578.9741.9741,0,0,0,.12-.178,1.0077,1.0077,0,0,0,.0448-.1633.9569.9569,0,0,0,.0477-.1741c.0024-.0309.0068-.0919.0123-.17A4.796,4.796,0,0,1,48.4,36a.94.94,0,0,0,.0306.1516.9757.9757,0,0,0,.0384.19.9625.9625,0,0,0,.0941.1731.6595.6595,0,0,0,.2556.2771.9573.9573,0,0,0,.1493.1007.9845.9845,0,0,0,.1975.06.9366.9366,0,0,0,.14.0424c.0318.0029.0636.0048.0944.0048h.0013a.9891.9891,0,0,0,.3752-.0759.96.96,0,0,0,.1138-.07.6087.6087,0,0,0,.2906-.2552.9685.9685,0,0,0,.12-.1781.9861.9861,0,0,0,.0476-.1637.9453.9453,0,0,0,.0469-.161c.001-.01.0062-.0776.0125-.171A4.7963,4.7963,0,0,1,60,36a1,1,0,0,0,2,0A30.03,30.03,0,0,0,33,6.0254ZM13.686,31.2908a6.7709,6.7709,0,0,0-9.1909-.5515A28.0788,28.0788,0,0,1,26.6083,8.527C16.6476,14.6888,14.219,25.1811,13.686,31.2908ZM25.0369,31.04a6.7714,6.7714,0,0,0-9.3361.0537c.5787-6.0112,3.1246-16.17,13.3307-21.6514C25.6051,15.6871,25.027,25.2223,25.0369,31.04ZM33,53.5a6.5,6.5,0,0,1-13,0V52a1,1,0,0,1,2,0v1.5a4.5,4.5,0,0,0,9,0V31.3192c.0254-.0055.05-.0154.0754-.02a4.7849,4.7849,0,0,1,1.8466,0c.0263.0052.0518.0156.078.0213Zm2-23.5733v-.0634l-.6533-.2412a6.7653,6.7653,0,0,0-4.6895-.002l-.0052.0025L29,29.8633v.0633a6.7441,6.7441,0,0,0-1.9479,1.44c-.0236-6.24.6037-17.2971,4.9479-22.8352,4.3441,5.5379,4.9714,16.594,4.9479,22.8345A6.732,6.732,0,0,0,35,29.9267ZM43.6,29.2a6.7688,6.7688,0,0,0-4.6365,1.84c.01-5.82-.5688-15.3626-4-21.6076,10.3854,5.529,12.8689,15.7049,13.3888,21.7108A6.7768,6.7768,0,0,0,43.6,29.2ZM55.2,29.2a6.7688,6.7688,0,0,0-4.8862,2.0906c-.533-6.11-2.9616-16.602-12.9223-22.7638A28.0788,28.0788,0,0,1,59.5049,30.7393,6.7744,6.7744,0,0,0,55.2,29.2Z"/></g></svg>